<svg version="1.1" xmlns="http://www.w3.org/2000/svg" xmlns:xlink="http://www.w3.org/1999/xlink" xmlns:a="http://ns.adobe.com/AdobeSVGViewerExtensions/3.0/" x="0px" y="0px" width="389px" height="31.9px" viewBox="0 0 389 31.9" style="enable-background:new 0 0 389 31.9;" xml:space="preserve">
<defs>
</defs>
<g>
<path d="M15,3.3c1.9,1.1,3.4,2.7,4.5,4.8c1.1,2.1,1.6,4.4,1.6,7.1V18c0,2.7-0.5,5.1-1.6,7.1c-1.1,2.1-2.6,3.6-4.6,4.8
s-4.2,1.7-6.8,1.7H1.4H0V1.6h2.5h5.8C10.8,1.6,13,2.2,15,3.3z M18.6,15.2c0-2.3-0.4-4.3-1.3-6c-0.8-1.7-2-3-3.6-4
c-1.5-0.9-3.3-1.4-5.4-1.4H2.5v25.6h5.6c2.1,0,3.9-0.5,5.5-1.4c1.6-1,2.8-2.3,3.6-4c0.8-1.7,1.3-3.7,1.3-6V15.2z"></path>
<path d="M49,25.4c-1,2.1-2.3,3.7-4.1,4.8c-1.8,1.1-3.8,1.7-6.1,1.7c-2.3,0-4.3-0.6-6.1-1.7c-1.8-1.1-3.1-2.7-4.1-4.8
c-1-2.1-1.5-4.5-1.5-7.2V15c0-2.8,0.5-5.2,1.4-7.2c1-2.1,2.3-3.7,4.1-4.8c1.8-1.1,3.8-1.7,6.1-1.7c2.3,0,4.4,0.6,6.1,1.7
C46.7,4.1,48,5.7,49,7.7c1,2.1,1.4,4.5,1.4,7.3v3.2C50.4,20.9,49.9,23.4,49,25.4z M46.8,8.8c-0.7-1.7-1.8-3.1-3.2-4
c-1.4-0.9-3-1.4-4.9-1.4c-1.9,0-3.5,0.5-4.8,1.4c-1.4,0.9-2.4,2.3-3.2,4c-0.7,1.7-1.1,3.8-1.1,6.1v3.2c0,2.4,0.4,4.4,1.1,6.1
c0.7,1.7,1.8,3.1,3.2,4c1.4,0.9,3,1.4,4.9,1.4c1.9,0,3.6-0.5,4.9-1.4c1.4-0.9,2.4-2.3,3.1-4c0.7-1.7,1.1-3.8,1.1-6.1v-3.2
C47.9,12.6,47.5,10.6,46.8,8.8z"></path>
<path d="M77.3,31.5L60.2,6v25.6h-2.5V1.6h2.5l17.2,25.6V1.6h2.5v29.9H77.3z"></path>
<path d="M88.8,9.1h-1.8L87,3.1V0h2.1v2.9L88.8,9.1z"></path>
<path d="M116.5,3.8h-10.2v27.7h-2.5V3.8H93.5V1.6h12.7h10.2V3.8z"></path>
<path d="M135.6,15.5c-1.4-0.7-2.5-1.6-3.3-2.7s-1.1-2.4-1.1-3.9s0.4-2.9,1.3-4c0.8-1.2,2-2.1,3.6-2.7c1.5-0.6,3.3-1,5.2-1
c2,0,3.8,0.4,5.4,1.2c1.6,0.8,2.8,1.9,3.6,3.2s1.3,2.9,1.3,4.5h-2.5c0-1.3-0.3-2.5-0.9-3.5c-0.6-1-1.5-1.8-2.7-2.4
s-2.5-0.9-4.1-0.9s-2.9,0.2-4.1,0.7c-1.1,0.5-2,1.2-2.6,2s-0.9,1.8-0.9,2.8c0,1,0.3,1.9,0.8,2.6c0.5,0.7,1.3,1.4,2.5,2
c1.2,0.6,2.7,1.2,4.7,1.7c2.2,0.6,4.1,1.3,5.5,2.1c1.4,0.8,2.5,1.7,3.3,2.8c0.8,1.1,1.1,2.5,1.1,4c0,1.6-0.4,3-1.3,4.1
c-0.9,1.2-2.1,2.1-3.7,2.7c-1.6,0.6-3.3,0.9-5.3,0.9c-1.9,0-3.7-0.3-5.4-1c-1.7-0.6-3.1-1.6-4.2-3c-1.1-1.3-1.6-3-1.6-5h2.5
c0,1.6,0.4,2.9,1.2,3.9c0.8,1,1.9,1.8,3.2,2.2c1.3,0.5,2.7,0.7,4.2,0.7c1.5,0,2.9-0.2,4.1-0.7c1.2-0.5,2.1-1.1,2.7-2
c0.6-0.9,1-1.8,1-2.9c0-1.1-0.3-2.1-0.8-2.8c-0.5-0.8-1.3-1.5-2.5-2.1c-1.2-0.6-2.8-1.2-4.9-1.8C138.8,16.9,137,16.2,135.6,15.5z"></path>
<path d="M178.1,3.8h-10.2v27.7h-2.5V3.8h-10.2V1.6h12.7h10.2V3.8z"></path>
<path d="M197.9,23.2h-13.6l-3.1,8.4h-2.6l11.3-29.9h1.8h0.6l11.3,29.9H201L197.9,23.2z M197.1,21l-6-16.3l-6,16.3H197.1z"></path>
<path d="M224.3,1.6h2.9l-10.8,18.6v11.3h-2.5V20.3L203.1,1.6h3l9.1,16.3L224.3,1.6z"></path>
<path d="M260.3,17.3c0.9,0.7,1.6,1.5,2,2.5c0.5,1,0.7,2.1,0.7,3.2c0,1.8-0.4,3.3-1.2,4.6c-0.8,1.3-1.9,2.2-3.3,2.9
c-1.4,0.7-3.1,1-5,1h-9h-1.1V1.6h8.8c3.1,0,5.5,0.6,7.2,1.9c1.7,1.3,2.5,3.2,2.5,5.9c0,1.5-0.4,2.9-1.3,4c-0.8,1.1-2,2-3.5,2.5
C258.4,16.2,259.5,16.6,260.3,17.3z M246,3.8V15h6.5c2.2,0,3.9-0.5,5.2-1.4c1.2-1,1.8-2.4,1.8-4.2c0-1.9-0.6-3.3-1.8-4.2
c-1.2-0.9-3-1.4-5.4-1.4H246z M257.3,28.6c1.1-0.5,1.9-1.2,2.4-2.2c0.6-0.9,0.8-2,0.8-3.3c0-1.2-0.2-2.2-0.7-3.1
c-0.5-0.9-1.3-1.6-2.3-2.1c-1-0.5-2.3-0.8-3.8-0.8H246v12.3h7.6C255,29.4,256.2,29.1,257.3,28.6z"></path>
<path d="M288.6,29.4v2.1h-16.8H270V1.6h2.5h15.9v2.2h-15.9V15h14v2.2h-14v12.2H288.6z"></path>
<path d="M316.8,1.6v29.9h-2.5V17.2h-17.1v14.3h-2.5V1.6h2.5V15h17.1V1.6H316.8z"></path>
<path d="M325.8,31.5V1.6h2.5v29.9H325.8z"></path>
<path d="M356.9,31.5L339.8,6v25.6h-2.5V1.6h2.5L357,27.2V1.6h2.5v29.9H356.9z"></path>
<path d="M374.1,29.8c-1.9-1.1-3.4-2.7-4.5-4.8c-1.1-2.1-1.6-4.4-1.6-7.1v-2.8c0-2.7,0.5-5.1,1.6-7.1c1.1-2.1,2.6-3.6,4.6-4.8
s4.2-1.7,6.8-1.7h6.8h1.4v29.9h-2.5h-5.8C378.2,31.5,376,31,374.1,29.8z M370.4,18c0,2.3,0.4,4.3,1.3,6c0.8,1.7,2,3,3.6,4
c1.5,0.9,3.3,1.4,5.4,1.4h5.8V3.8h-5.6c-2.1,0-3.9,0.5-5.5,1.4c-1.6,1-2.8,2.3-3.6,4s-1.3,3.7-1.3,6V18z"></path>
</g>
</svg>